<?xml version="1.0" encoding="UTF-8"?>
<svg id="Layer_2" data-name="Layer 2" xmlns="http://www.w3.org/2000/svg" viewBox="0 0 607.04 645.27">
  <defs>
    <style>
      .cls-1 {
        fill: #ebab42;
      }

      .cls-2 {
        fill: #284d66;
      }
    </style>
  </defs>
  <g id="Layer_2-2" data-name="Layer 2">
    <g>
      <path class="cls-2" d="M242.83,422.3c-12.19,0-23.76-1.9-34.4-5.64-30.49-10.79-44.35-42.06-44.35-77.83s13.86-67.02,44.35-77.8c10.64-3.77,22.21-5.68,34.4-5.68,49.67,0,80.52,32,80.52,83.48s-30.84,83.47-80.52,83.47M313.41,152.73c-55.98-2.71-107.05,16.18-137.5,52.28l-19.02,22.58v-63.02H0v480.7h156.9v-195.18l19.02,22.55c30.45,36.13,86.06,60.09,139.69,49.14,107.36-21.93,148.91-98.13,148.98-184.06.08-115.62-40.79-179.64-151.17-184.98"/>
      <g>
        <path class="cls-1" d="M483.38,274.54c-.85,6.22-9.55,26.1-32.31,32.18-6.81,1.82-13.9-2.08-19.97-5.51l-2.49-1.38c-5.04-2.84-9.57-6.63-13.18-11.22-7.57-9.69-13.28-17.73-20.93-24.96-4.04-3.69-8.63-7.17-14.47-10.49-17.13-9.31-30.07-9.32-48.46-11.4-5.77-.65-11.51-2.46-16.56-5.24l-2.38-1.3c-6.19-3.52-13.34-7.45-15.29-14.22-7.21-25,4.18-38.49,11.88-46.41,8.71-8.94,36.67-9.07,60.92-19.28,16.88-7.1,21.05-20.59,39.39-26.56,13.3-4.34,25.41,2.52,34.51,7.63,9.28,5.08,21.64,9.53,26.96,22.64,6.45,15.9-3.43,31.45.43,50.87,5.18,26.04,13.47,50.52,12.35,61.95-.17.87-.22,1.84-.39,2.71"/>
        <path class="cls-1" d="M491.8,37.11c2.02,28.69-17.08,56.28-42.48,61.63-25.36,5.27-38.67-10.39-40.61-39.05-2.04-28.74,10.85-50.19,30.78-57.21,24.56-8.67,50.31,5.99,52.32,34.64"/>
        <path class="cls-1" d="M574.06,132.07c-18.37,16.27-47.57,24.43-67.89,14.56-22.64-10.98-18.83-51.44,1.85-72.13,20.68-20.82,49.03-23.28,68.82-7.74,19.93,15.58,19.11,45.93-2.78,65.31"/>
        <path class="cls-1" d="M347.5,118.76c-37.79,9.06-56.46-35.42-53.95-55.38,2.01-16.07,18.03-46.5,47.79-38.28,48.78,13.3,47.74,83.59,6.16,93.65"/>
        <path class="cls-1" d="M512.01,220.42c-9.06-37.79,35.42-56.46,55.38-53.95,16.07,2.01,46.5,18.03,38.28,47.79-13.3,48.78-83.59,47.74-93.65,6.16"/>
      </g>
    </g>
  </g>
</svg>