<?xml version="1.0" encoding="UTF-8"?>
<svg id="Layer_2" data-name="Layer 2" xmlns="http://www.w3.org/2000/svg" viewBox="0 0 1878.05 645.27">
  <defs>
    <style>
      .cls-1 {
        fill: #ebab42;
      }

      .cls-2 {
        fill: #fff;
      }
    </style>
  </defs>
  <g id="Layer_2-2" data-name="Layer 2">
    <g>
      <g>
        <path class="cls-1" d="M1782.07,213.1c-.66,4.83-7.41,20.26-25.08,24.98-5.28,1.41-10.79-1.61-15.5-4.28l-1.93-1.07c-3.91-2.21-7.42-5.15-10.23-8.71-5.88-7.52-10.31-13.76-16.25-19.38-3.14-2.87-6.7-5.56-11.23-8.14-13.3-7.23-23.34-7.23-37.62-8.85-4.48-.51-8.94-1.91-12.85-4.07l-1.85-1.01c-4.8-2.73-10.36-5.78-11.87-11.04-5.6-19.41,3.24-29.88,9.22-36.02,6.76-6.94,28.46-7.04,47.28-14.97,13.1-5.51,16.34-15.98,30.57-20.62,10.32-3.37,19.73,1.96,26.78,5.93,7.2,3.94,16.79,7.4,20.93,17.57,5.01,12.34-2.66,24.41.33,39.48,4.02,20.22,10.45,39.21,9.58,48.09-.13.68-.17,1.43-.3,2.11"/>
        <path class="cls-1" d="M1788.6,28.81c1.57,22.27-13.25,43.68-32.98,47.84-19.69,4.09-30.02-8.06-31.52-30.31-1.58-22.31,8.42-38.96,23.89-44.41,19.06-6.73,39.05,4.65,40.61,26.88"/>
        <path class="cls-1" d="M1852.45,102.52c-14.26,12.63-36.92,18.96-52.7,11.3-17.57-8.53-14.62-39.92,1.44-55.99,16.05-16.16,38.06-18.07,53.42-6.01,15.47,12.09,14.84,35.65-2.16,50.69"/>
        <path class="cls-1" d="M1676.6,92.19c-29.34,7.03-43.83-27.5-41.88-42.98,1.56-12.48,13.99-36.09,37.09-29.71,37.86,10.32,37.06,64.88,4.78,72.69"/>
        <path class="cls-1" d="M1804.29,171.09c-7.03-29.34,27.5-43.83,42.98-41.88,12.48,1.56,36.09,13.99,29.71,37.09-10.32,37.86-64.88,37.06-72.69,4.78"/>
      </g>
      <g>
        <path class="cls-2" d="M790.81,434.84v-103.28h-48.24v-49.82h48.24v-92.44h121.36v92.44h102.35v49.82h-102.35v86.08c0,29.09,21.68,42.79,53.98,42.79,12.25,0,23.99-2.71,36.76-7.14l13.53,68.8c-28.57,17.14-71.8,24.89-103.87,24.89-76.26,0-121.76-41.92-121.76-112.14"/>
        <path class="cls-2" d="M1100.12,434.84v-103.28h-48.25v-49.82h48.25v-92.44h121.36v92.44h102.34v49.82h-102.34v86.08c0,29.09,21.68,42.79,53.98,42.79,12.24,0,23.99-2.71,36.76-7.14l13.53,68.8c-28.57,17.14-71.8,24.89-103.87,24.89-76.26,0-121.76-41.92-121.76-112.14"/>
        <path class="cls-2" d="M1636.2,241.33v135.78c-17.5-13.37-34.33-15.88-51.85-18.14-7.62-.99-23.8.92-31.49,2.74-40.66,9.69-58.83,33.73-63.45,70.64-.38,3.06-1.14,16.13-1.74,25.76l-1.92,77.08h-112.81l-.09-276.82h115.73l.09,50.96c-.11.2-.26.43-.38.64h.38v-.64l.03,5.8c6.03-10.09,13.35-19.22,21.83-27.23,24.52-23.11,52.76-42.7,93.66-46.06,6.62-.58,19.24-.84,26.21-.84,3.93,0,1.98.09,5.8.32"/>
        <path class="cls-2" d="M196.9,464.47c-9.88,0-19.26-1.54-27.89-4.57-24.72-8.75-35.96-34.11-35.96-63.11s11.24-54.34,35.96-63.08c8.63-3.06,18.01-4.6,27.89-4.6,40.28,0,65.29,25.94,65.29,67.69s-25.01,67.68-65.29,67.68M254.12,245.9c-45.39-2.2-86.8,13.12-111.49,42.39l-15.42,18.31v-51.1H0v389.77h127.22v-158.26l15.42,18.28c24.69,29.29,69.78,48.72,113.27,39.84,87.05-17.78,120.74-79.56,120.8-149.24.07-93.75-33.08-145.66-122.58-149.99"/>
        <path class="cls-2" d="M721.69,391.98c0-47.28-15.42-86.05-44.63-112.11-27.28-24.34-65.47-37.23-110.36-37.23-49.97,0-91.39,14.2-119.87,41.07-28.42,26.85-43.43,65.94-43.43,113.08,0,97.98,63.06,154.18,172.95,154.18,57.57,0,99.79-13.96,132.02-43.82l-48.24-56.64c-21.25,15.37-41.34,23.61-76.88,23.61-30.84,0-67.77-5.16-79.7-45.36l-3.33-11.26h219.48c1.37-7.49,1.98-15.62,1.98-25.53M501.72,380.54l4.02-11.6c9.48-27.35,31.11-41.78,62.53-41.78s50.98,14.46,60.25,41.83l3.93,11.55h-130.74Z"/>
      </g>
    </g>
  </g>
</svg>