<?xml version="1.0" encoding="UTF-8"?>
<svg id="Layer_2" data-name="Layer 2" xmlns="http://www.w3.org/2000/svg" viewBox="0 0 105.11 102.93">
  <g id="Layer_2-2" data-name="Layer 2">
    <g>
      <path d="M63.68,91.99c-.29,2.09-3.2,8.75-10.82,10.78-2.28.61-4.66-.69-6.69-1.84l-.83-.46c-1.69-.95-3.21-2.22-4.41-3.76-2.54-3.25-4.45-5.94-7.01-8.37-1.35-1.24-2.89-2.4-4.85-3.52-5.74-3.12-10.08-3.12-16.24-3.82-1.93-.22-3.86-.82-5.55-1.76l-.8-.44c-2.07-1.18-4.47-2.5-5.12-4.76-2.42-8.38,1.4-12.9,3.98-15.55,2.92-3,12.29-3.04,20.41-6.46,5.65-2.38,7.05-6.9,13.2-8.9,4.46-1.45,8.52.85,11.56,2.56,3.11,1.7,7.25,3.19,9.04,7.59,2.16,5.32-1.15,10.54.14,17.04,1.73,8.73,4.51,16.93,4.14,20.76-.06.29-.07.62-.13.91Z"/>
      <path d="M66.5,12.44c.68,9.61-5.72,18.86-14.24,20.65-8.5,1.77-12.96-3.48-13.61-13.08-.68-9.63,3.64-16.81,10.31-19.17,8.23-2.9,16.86,2.01,17.53,11.61Z"/>
      <path d="M94.06,44.25c-6.16,5.45-15.94,8.19-22.75,4.88-7.59-3.68-6.31-17.23.62-24.17,6.93-6.98,16.43-7.8,23.06-2.59,6.68,5.22,6.4,15.38-.93,21.88Z"/>
      <path d="M18.15,39.79C5.49,42.83-.77,27.92.07,21.24c.67-5.39,6.04-15.58,16.01-12.83,16.34,4.46,16,28.01,2.06,31.38Z"/>
      <path d="M73.27,73.86c-3.04-12.66,11.87-18.92,18.55-18.08,5.39.67,15.58,6.04,12.83,16.01-4.46,16.34-28.01,16-31.38,2.06Z"/>
    </g>
  </g>
</svg>