<?xml version="1.0" encoding="UTF-8"?>
<svg id="Layer_2" data-name="Layer 2" xmlns="http://www.w3.org/2000/svg" viewBox="0 0 83.53 81.79">
  <defs>
    <style>
      .cls-1 {
        fill: #eaaa42;
      }
    </style>
  </defs>
  <g id="Layer_2-2" data-name="Layer 2">
    <path class="cls-1" d="M50.61,73.1c-.23,1.66-2.54,6.95-8.6,8.57-1.81.48-3.7-.55-5.32-1.47l-.66-.37c-1.34-.76-2.55-1.77-3.51-2.99-2.02-2.58-3.54-4.72-5.57-6.65-1.08-.98-2.3-1.91-3.85-2.79-4.56-2.48-8.01-2.48-12.9-3.04-1.54-.17-3.07-.66-4.41-1.4l-.63-.35c-1.65-.94-3.55-1.98-4.07-3.79-1.92-6.66,1.11-10.25,3.16-12.36,2.32-2.38,9.76-2.42,16.22-5.14,4.49-1.89,5.6-5.48,10.49-7.07,3.54-1.15,6.77.67,9.19,2.03,2.47,1.35,5.76,2.54,7.18,6.03,1.72,4.23-.91,8.37.11,13.54,1.38,6.93,3.58,13.45,3.29,16.5-.04.23-.06.49-.1.72Z"/>
    <path class="cls-1" d="M52.85,9.88c.54,7.64-4.55,14.99-11.31,16.41-6.75,1.41-10.3-2.76-10.81-10.4-.54-7.65,2.89-13.36,8.2-15.23,6.54-2.31,13.4,1.6,13.93,9.22Z"/>
    <path class="cls-1" d="M74.75,35.17c-4.89,4.33-12.67,6.5-18.08,3.88-6.03-2.93-5.01-13.7.49-19.21,5.51-5.54,13.06-6.2,18.32-2.06,5.31,4.15,5.09,12.23-.74,17.39Z"/>
    <path class="cls-1" d="M14.43,31.62C4.36,34.04-.61,22.19.06,16.88.6,12.6,4.86,4.5,12.78,6.69c12.99,3.54,12.71,22.26,1.64,24.94Z"/>
    <path class="cls-1" d="M58.23,58.69c-2.41-10.06,9.43-15.03,14.74-14.37,4.28.54,12.38,4.8,10.19,12.72-3.54,12.99-22.26,12.71-24.94,1.64Z"/>
  </g>
</svg>