<?xml version="1.0" encoding="UTF-8"?>
<svg id="Layer_2" data-name="Layer 2" xmlns="http://www.w3.org/2000/svg" viewBox="0 0 645.27 645.27">
  <defs>
    <style>
      .cls-1 {
        fill: #ebab42;
      }

      .cls-2 {
        fill: #66293d;
      }

      .cls-3 {
        fill: #fff;
      }
    </style>
  </defs>
  <g id="Layer_2-2" data-name="Layer 2">
    <g>
      <circle class="cls-1" cx="322.63" cy="322.63" r="322.63"/>
      <path class="cls-3" d="M317.27,363.26c-6.67,0-13.01-1.04-18.83-3.09-16.69-5.9-24.28-23.03-24.28-42.61s7.59-36.69,24.28-42.59c5.82-2.06,12.16-3.11,18.83-3.11,27.19,0,44.08,17.52,44.08,45.7s-16.89,45.7-44.08,45.7M355.9,215.7c-30.65-1.48-58.6,8.86-75.27,28.62l-10.41,12.36v-34.5h-85.89v263.15h85.89v-106.85l10.41,12.34c16.67,19.78,47.11,32.9,76.47,26.9,58.77-12.01,81.52-53.72,81.56-100.76.04-63.29-22.33-98.34-82.76-101.26"/>
      <g>
        <path class="cls-2" d="M448.95,282.38c-.47,3.41-5.23,14.29-17.68,17.62-3.73.99-7.61-1.14-10.93-3.02l-1.36-.76c-2.76-1.56-5.24-3.63-7.21-6.14-4.15-5.3-7.27-9.7-11.46-13.67-2.21-2.02-4.72-3.92-7.92-5.74-9.38-5.1-16.46-5.1-26.53-6.24-3.16-.36-6.3-1.35-9.06-2.87l-1.3-.71c-3.39-1.93-7.3-4.08-8.37-7.78-3.95-13.69,2.29-21.07,6.5-25.4,4.77-4.89,20.07-4.96,33.35-10.56,9.24-3.89,11.52-11.27,21.56-14.54,7.28-2.37,13.91,1.38,18.89,4.18,5.08,2.78,11.84,5.22,14.76,12.39,3.53,8.7-1.88,17.21.23,27.85,2.84,14.26,7.37,27.65,6.76,33.91-.09.48-.12,1.01-.21,1.49"/>
        <path class="cls-2" d="M453.56,152.41c1.11,15.7-9.35,30.81-23.26,33.74-13.88,2.89-21.17-5.69-22.23-21.38-1.12-15.73,5.94-27.47,16.85-31.32,13.44-4.75,27.54,3.28,28.64,18.96"/>
        <path class="cls-2" d="M498.59,204.39c-10.06,8.91-26.04,13.37-37.17,7.97-12.39-6.01-10.31-28.16,1.02-39.49,11.32-11.4,26.84-12.75,37.67-4.24,10.91,8.53,10.46,25.14-1.52,35.75"/>
        <path class="cls-2" d="M374.57,197.1c-20.69,4.96-30.91-19.39-29.53-30.31,1.1-8.8,9.87-25.46,26.16-20.95,26.7,7.28,26.13,45.76,3.37,51.27"/>
        <path class="cls-2" d="M464.62,252.75c-4.96-20.69,19.39-30.91,30.31-29.53,8.8,1.1,25.46,9.87,20.95,26.16-7.28,26.7-45.76,26.14-51.27,3.37"/>
      </g>
    </g>
  </g>
</svg>